<svg xmlns="http://www.w3.org/2000/svg" xmlns:xlink="http://www.w3.org/1999/xlink" width="500" zoomAndPan="magnify" viewBox="0 0 375 374.999991" height="500" preserveAspectRatio="xMidYMid meet" version="1.0"><defs><g/><clipPath id="bf401caa59"><path d="M 62.117188 163.59375 L 110 163.59375 L 110 212 L 62.117188 212 Z M 62.117188 163.59375 " clip-rule="nonzero"/></clipPath><clipPath id="0e48867570"><path d="M 71 172 L 119.117188 172 L 119.117188 220.59375 L 71 220.59375 Z M 71 172 " clip-rule="nonzero"/></clipPath></defs><g clip-path="url(#bf401caa59)"><path fill="#000000" d="M 107.71875 169.292969 C 107.597656 169.292969 107.597656 169.292969 107.480469 169.292969 L 105.460938 171.3125 C 105.460938 171.546875 105.460938 171.667969 105.222656 171.90625 C 104.984375 172.140625 104.511719 172.140625 104.273438 171.90625 C 104.035156 171.667969 104.035156 171.191406 104.273438 170.953125 C 104.628906 170.835938 104.867188 170.71875 104.984375 170.71875 L 107.003906 168.699219 C 106.292969 168.34375 105.578125 167.867188 104.867188 167.390625 L 103.085938 169.171875 C 103.085938 169.410156 103.085938 169.53125 102.847656 169.765625 C 102.609375 170.003906 102.136719 170.003906 101.898438 169.765625 C 101.660156 169.53125 101.660156 169.054688 101.898438 168.816406 C 102.015625 168.699219 102.253906 168.578125 102.492188 168.578125 L 104.035156 167.035156 C 100.117188 164.78125 95.484375 163.59375 90.617188 163.59375 C 74.824219 163.59375 62.117188 176.296875 62.117188 192.09375 C 62.117188 196.960938 63.304688 201.59375 65.5625 205.628906 L 67.105469 203.96875 C 67.105469 203.730469 67.105469 203.609375 67.34375 203.375 C 67.578125 203.136719 68.054688 203.136719 68.292969 203.375 C 68.53125 203.609375 68.53125 204.085938 68.292969 204.324219 C 68.171875 204.441406 67.9375 204.5625 67.699219 204.5625 L 65.917969 206.34375 C 66.390625 207.054688 66.867188 207.765625 67.34375 208.480469 L 69.242188 206.460938 C 69.242188 206.222656 69.242188 206.105469 69.480469 205.867188 C 69.71875 205.628906 70.191406 205.628906 70.429688 205.867188 C 70.667969 206.105469 70.667969 206.578125 70.429688 206.816406 C 70.3125 206.9375 70.074219 207.054688 69.835938 207.054688 L 67.816406 209.074219 C 67.816406 209.191406 67.816406 209.191406 67.816406 209.3125 C 68.410156 210.140625 69.003906 210.855469 69.71875 211.566406 L 109.972656 171.191406 C 109.261719 170.597656 108.546875 169.886719 107.71875 169.292969 Z M 97.386719 173.328125 C 97.503906 173.210938 97.742188 173.09375 97.980469 173.09375 L 100 171.074219 C 100 170.835938 100 170.71875 100.234375 170.480469 C 100.472656 170.242188 100.949219 170.242188 101.1875 170.480469 C 101.421875 170.71875 101.421875 171.191406 101.1875 171.429688 C 101.066406 171.546875 100.828125 171.667969 100.59375 171.667969 L 98.574219 173.6875 C 98.574219 173.921875 98.574219 174.042969 98.335938 174.28125 C 98.097656 174.515625 97.625 174.515625 97.386719 174.28125 C 97.148438 174.042969 97.148438 173.566406 97.386719 173.328125 Z M 92.636719 178.078125 C 92.875 177.84375 92.992188 177.84375 93.230469 177.84375 L 95.25 175.824219 C 95.25 175.585938 95.25 175.46875 95.484375 175.230469 C 95.722656 174.992188 96.199219 174.992188 96.4375 175.230469 C 96.671875 175.46875 96.671875 175.941406 96.4375 176.179688 C 96.316406 176.296875 96.078125 176.417969 95.84375 176.417969 L 93.824219 178.4375 C 93.824219 178.671875 93.824219 178.792969 93.585938 179.03125 C 93.347656 179.265625 92.875 179.265625 92.636719 179.03125 C 92.398438 178.671875 92.398438 178.316406 92.636719 178.078125 Z M 88.003906 182.710938 C 88.125 182.59375 88.359375 182.472656 88.597656 182.472656 L 90.617188 180.453125 C 90.617188 180.21875 90.617188 180.097656 90.855469 179.859375 C 91.09375 179.625 91.566406 179.625 91.804688 179.859375 C 92.042969 180.097656 92.042969 180.574219 91.804688 180.8125 C 91.6875 180.929688 91.449219 181.046875 91.210938 181.046875 L 89.191406 183.066406 C 89.191406 183.304688 89.191406 183.421875 88.953125 183.660156 C 88.71875 183.898438 88.242188 183.898438 88.003906 183.660156 C 87.648438 183.421875 87.648438 182.949219 88.003906 182.710938 Z M 83.253906 187.460938 C 83.375 187.34375 83.609375 187.222656 83.847656 187.222656 L 85.867188 185.203125 C 85.867188 184.96875 85.867188 184.847656 86.105469 184.609375 C 86.34375 184.375 86.816406 184.375 87.054688 184.609375 C 87.292969 184.847656 87.292969 185.324219 87.054688 185.5625 C 86.9375 185.679688 86.699219 185.796875 86.460938 185.796875 L 84.441406 187.816406 C 84.441406 188.054688 84.441406 188.171875 84.203125 188.410156 C 83.96875 188.648438 83.492188 188.648438 83.253906 188.410156 C 83.015625 188.171875 83.015625 187.699219 83.253906 187.460938 Z M 78.503906 192.210938 C 78.625 192.09375 78.859375 191.972656 79.097656 191.972656 L 81.117188 189.953125 C 81.117188 189.71875 81.117188 189.597656 81.355469 189.359375 C 81.59375 189.125 82.066406 189.125 82.304688 189.359375 C 82.542969 189.597656 82.542969 190.074219 82.304688 190.3125 C 82.1875 190.429688 81.949219 190.546875 81.710938 190.546875 L 79.691406 192.566406 C 79.691406 192.804688 79.691406 192.921875 79.453125 193.160156 C 79.21875 193.398438 78.742188 193.398438 78.503906 193.160156 C 78.265625 192.804688 78.265625 192.449219 78.503906 192.210938 Z M 73.875 196.84375 C 73.992188 196.722656 74.230469 196.605469 74.46875 196.605469 L 76.484375 194.585938 C 76.484375 194.347656 76.484375 194.230469 76.722656 193.992188 C 76.960938 193.753906 77.4375 193.753906 77.671875 193.992188 C 77.910156 194.230469 77.910156 194.703125 77.671875 194.941406 C 77.554688 195.0625 77.316406 195.179688 77.078125 195.179688 L 75.0625 197.199219 C 75.0625 197.4375 75.0625 197.554688 74.824219 197.792969 C 74.585938 198.03125 74.109375 198.03125 73.875 197.792969 C 73.515625 197.554688 73.515625 197.078125 73.875 196.84375 Z M 70.191406 201.949219 C 70.191406 202.1875 70.191406 202.304688 69.953125 202.542969 C 69.71875 202.78125 69.242188 202.78125 69.003906 202.542969 C 68.765625 202.304688 68.765625 201.828125 69.003906 201.59375 C 69.125 201.472656 69.359375 201.355469 69.597656 201.355469 L 71.617188 199.453125 C 71.617188 199.21875 71.617188 199.097656 71.855469 198.859375 C 72.09375 198.625 72.566406 198.625 72.804688 198.859375 C 73.042969 199.097656 73.042969 199.574219 72.804688 199.8125 C 72.6875 199.929688 72.449219 200.046875 72.210938 200.046875 Z M 75.179688 202.1875 C 75.0625 202.304688 74.824219 202.421875 74.585938 202.421875 L 72.566406 204.441406 C 72.566406 204.679688 72.566406 204.796875 72.328125 205.035156 C 72.09375 205.273438 71.617188 205.273438 71.378906 205.035156 C 71.140625 204.796875 71.140625 204.324219 71.378906 204.085938 C 71.5 203.96875 71.734375 203.847656 71.972656 203.847656 L 73.992188 201.828125 C 73.992188 201.59375 73.992188 201.472656 74.230469 201.234375 C 74.46875 201 74.941406 201 75.179688 201.234375 C 75.417969 201.472656 75.417969 201.949219 75.179688 202.1875 Z M 79.8125 197.4375 C 79.691406 197.554688 79.453125 197.671875 79.21875 197.671875 L 77.199219 199.691406 C 77.199219 199.929688 77.199219 200.046875 76.960938 200.285156 C 76.722656 200.523438 76.25 200.523438 76.011719 200.285156 C 75.773438 200.046875 75.773438 199.574219 76.011719 199.335938 C 76.128906 199.21875 76.367188 199.097656 76.605469 199.097656 L 78.625 197.078125 C 78.625 196.84375 78.625 196.722656 78.859375 196.484375 C 79.097656 196.25 79.574219 196.25 79.8125 196.484375 C 80.167969 196.722656 80.167969 197.199219 79.8125 197.4375 Z M 84.5625 192.6875 C 84.441406 192.804688 84.203125 192.921875 83.96875 192.921875 L 81.949219 194.941406 C 81.949219 195.179688 81.949219 195.296875 81.710938 195.535156 C 81.472656 195.773438 81 195.773438 80.761719 195.535156 C 80.523438 195.296875 80.523438 194.824219 80.761719 194.585938 C 80.878906 194.46875 81.117188 194.347656 81.355469 194.347656 L 83.375 192.328125 C 83.375 192.09375 83.375 191.972656 83.609375 191.734375 C 83.847656 191.5 84.324219 191.5 84.5625 191.734375 C 84.796875 192.09375 84.796875 192.449219 84.5625 192.6875 Z M 89.3125 188.054688 C 89.191406 188.171875 88.953125 188.292969 88.71875 188.292969 L 86.699219 190.3125 C 86.699219 190.546875 86.699219 190.667969 86.460938 190.90625 C 86.222656 191.140625 85.75 191.140625 85.511719 190.90625 C 85.273438 190.667969 85.273438 190.191406 85.511719 189.953125 C 85.628906 189.835938 85.867188 189.71875 86.105469 189.71875 L 88.125 187.699219 C 88.125 187.460938 88.125 187.34375 88.359375 187.105469 C 88.597656 186.867188 89.074219 186.867188 89.3125 187.105469 C 89.546875 187.34375 89.546875 187.816406 89.3125 188.054688 Z M 93.941406 183.304688 C 93.824219 183.421875 93.585938 183.542969 93.347656 183.542969 L 91.328125 185.5625 C 91.328125 185.796875 91.328125 185.917969 91.09375 186.15625 C 90.855469 186.390625 90.378906 186.390625 90.140625 186.15625 C 89.90625 185.917969 89.90625 185.441406 90.140625 185.203125 C 90.261719 185.085938 90.5 184.96875 90.734375 184.96875 L 92.753906 182.949219 C 92.753906 182.710938 92.753906 182.59375 92.992188 182.355469 C 93.230469 182.117188 93.703125 182.117188 93.941406 182.355469 C 94.296875 182.59375 94.296875 183.066406 93.941406 183.304688 Z M 98.691406 178.554688 C 98.574219 178.671875 98.335938 178.792969 98.097656 178.792969 L 96.078125 180.8125 C 96.078125 181.046875 96.078125 181.167969 95.84375 181.40625 C 95.605469 181.640625 95.128906 181.640625 94.890625 181.40625 C 94.65625 181.167969 94.65625 180.691406 94.890625 180.453125 C 95.128906 180.21875 95.367188 180.21875 95.605469 180.21875 L 97.625 178.199219 C 97.625 177.960938 97.625 177.84375 97.859375 177.605469 C 98.097656 177.367188 98.574219 177.367188 98.8125 177.605469 C 98.929688 177.960938 98.929688 178.316406 98.691406 178.554688 Z M 103.441406 173.921875 C 103.324219 174.042969 103.085938 174.160156 102.847656 174.160156 L 100.828125 176.179688 C 100.828125 176.417969 100.828125 176.535156 100.59375 176.773438 C 100.355469 177.011719 99.878906 177.011719 99.640625 176.773438 C 99.40625 176.535156 99.40625 176.0625 99.640625 175.824219 C 99.878906 175.46875 100.117188 175.46875 100.355469 175.46875 L 102.375 173.449219 C 102.375 173.210938 102.375 173.09375 102.609375 172.855469 C 102.847656 172.617188 103.324219 172.617188 103.5625 172.855469 C 103.679688 173.210938 103.679688 173.566406 103.441406 173.921875 Z M 103.441406 173.921875 " fill-opacity="1" fill-rule="nonzero"/></g><g clip-path="url(#0e48867570)"><path fill="#000000" d="M 115.671875 178.554688 L 114.128906 180.21875 C 114.128906 180.453125 114.128906 180.574219 113.890625 180.8125 C 113.65625 181.046875 113.179688 181.046875 112.941406 180.8125 C 112.703125 180.574219 112.703125 180.097656 112.941406 179.859375 C 113.0625 179.742188 113.296875 179.625 113.535156 179.625 L 115.316406 177.84375 C 114.84375 177.128906 114.367188 176.417969 113.890625 175.703125 L 111.992188 177.722656 C 111.992188 177.960938 111.992188 178.078125 111.753906 178.316406 C 111.515625 178.554688 111.042969 178.554688 110.804688 178.316406 C 110.566406 178.078125 110.566406 177.605469 110.804688 177.367188 C 110.921875 177.25 111.160156 177.128906 111.398438 177.128906 L 113.417969 175.109375 C 113.417969 174.992188 113.417969 174.992188 113.417969 174.875 C 112.824219 174.042969 112.230469 173.328125 111.515625 172.617188 L 71.261719 212.992188 C 71.972656 213.703125 72.6875 214.296875 73.515625 214.890625 C 73.636719 214.890625 73.636719 214.890625 73.753906 214.890625 L 75.773438 212.875 C 75.773438 212.636719 75.773438 212.515625 76.011719 212.28125 C 76.25 212.042969 76.722656 212.042969 76.960938 212.28125 C 77.199219 212.515625 77.199219 212.992188 76.960938 213.230469 C 76.605469 213.347656 76.367188 213.46875 76.25 213.46875 L 74.230469 215.484375 C 74.941406 215.960938 75.65625 216.4375 76.367188 216.910156 L 78.148438 215.128906 C 78.148438 214.890625 78.148438 214.773438 78.386719 214.535156 C 78.625 214.296875 79.097656 214.296875 79.335938 214.535156 C 79.574219 214.773438 79.574219 215.25 79.335938 215.484375 C 79.21875 215.605469 78.980469 215.722656 78.742188 215.722656 L 77.199219 217.265625 C 81.117188 219.40625 85.75 220.59375 90.617188 220.59375 C 106.410156 220.59375 119.117188 207.886719 119.117188 192.09375 C 119.117188 187.222656 117.929688 182.59375 115.671875 178.554688 Z M 106.054688 182 C 106.171875 181.878906 106.410156 181.761719 106.648438 181.761719 L 108.667969 179.742188 C 108.667969 179.503906 108.667969 179.386719 108.90625 179.148438 C 109.140625 178.910156 109.617188 178.910156 109.855469 179.148438 C 110.09375 179.386719 110.09375 179.859375 109.855469 180.097656 C 109.734375 180.21875 109.5 180.335938 109.261719 180.335938 L 107.242188 182.355469 C 107.242188 182.59375 107.242188 182.710938 107.003906 182.949219 C 106.765625 183.1875 106.292969 183.1875 106.054688 182.949219 C 105.816406 182.710938 105.816406 182.234375 106.054688 182 Z M 101.421875 186.75 C 101.542969 186.628906 101.78125 186.511719 102.015625 186.511719 L 104.035156 184.492188 C 104.035156 184.253906 104.035156 184.136719 104.273438 183.898438 C 104.511719 183.660156 104.984375 183.660156 105.222656 183.898438 C 105.460938 184.136719 105.460938 184.609375 105.222656 184.847656 C 105.105469 184.96875 104.867188 185.085938 104.628906 185.085938 L 102.492188 187.105469 C 102.492188 187.34375 102.492188 187.460938 102.253906 187.699219 C 102.015625 187.9375 101.542969 187.9375 101.304688 187.699219 C 101.066406 187.460938 101.066406 186.984375 101.421875 186.75 Z M 96.671875 191.5 C 96.792969 191.378906 97.03125 191.261719 97.265625 191.261719 L 99.285156 189.242188 C 99.285156 189.003906 99.285156 188.886719 99.523438 188.648438 C 99.761719 188.410156 100.234375 188.410156 100.472656 188.648438 C 100.710938 188.886719 100.710938 189.359375 100.472656 189.597656 C 100.355469 189.71875 100.117188 189.835938 99.878906 189.835938 L 97.742188 191.855469 C 97.742188 192.09375 97.742188 192.210938 97.503906 192.449219 C 97.265625 192.6875 96.792969 192.6875 96.554688 192.449219 C 96.4375 192.09375 96.4375 191.734375 96.671875 191.5 Z M 91.921875 196.128906 C 92.042969 196.011719 92.28125 195.890625 92.515625 195.890625 L 94.535156 193.875 C 94.535156 193.636719 94.535156 193.515625 94.773438 193.28125 C 95.011719 193.042969 95.484375 193.042969 95.722656 193.28125 C 95.960938 193.515625 95.960938 193.992188 95.722656 194.230469 C 95.605469 194.347656 95.367188 194.46875 95.128906 194.46875 L 93.109375 196.484375 C 93.109375 196.722656 93.109375 196.84375 92.875 197.078125 C 92.636719 197.316406 92.160156 197.316406 91.921875 197.078125 C 91.6875 196.84375 91.6875 196.367188 91.921875 196.128906 Z M 87.292969 200.878906 C 87.410156 200.761719 87.648438 200.640625 87.886719 200.640625 L 89.90625 198.625 C 89.90625 198.386719 89.90625 198.265625 90.140625 198.03125 C 90.378906 197.792969 90.855469 197.792969 91.09375 198.03125 C 91.328125 198.265625 91.328125 198.742188 91.09375 198.980469 C 90.734375 199.21875 90.617188 199.335938 90.378906 199.21875 L 88.359375 201.234375 C 88.359375 201.472656 88.359375 201.59375 88.125 201.828125 C 87.886719 202.066406 87.410156 202.066406 87.171875 201.828125 C 86.9375 201.59375 86.9375 201.117188 87.292969 200.878906 Z M 82.542969 205.628906 C 82.660156 205.511719 82.898438 205.390625 83.136719 205.390625 L 85.15625 203.375 C 85.15625 203.136719 85.15625 203.015625 85.390625 202.78125 C 85.628906 202.542969 86.105469 202.542969 86.34375 202.78125 C 86.578125 203.015625 86.578125 203.492188 86.34375 203.730469 C 86.105469 203.96875 85.867188 203.96875 85.628906 203.96875 L 83.609375 205.984375 C 83.609375 206.222656 83.609375 206.34375 83.375 206.578125 C 83.136719 206.816406 82.660156 206.816406 82.421875 206.578125 C 82.304688 206.222656 82.304688 205.867188 82.542969 205.628906 Z M 78.980469 210.734375 C 78.980469 210.972656 78.980469 211.09375 78.742188 211.328125 C 78.503906 211.566406 78.03125 211.566406 77.792969 211.328125 C 77.554688 211.09375 77.554688 210.617188 77.792969 210.378906 C 77.910156 210.261719 78.148438 210.140625 78.386719 210.140625 L 80.40625 208.125 C 80.40625 207.886719 80.40625 207.765625 80.640625 207.53125 C 80.878906 207.292969 81.355469 207.292969 81.59375 207.53125 C 81.828125 207.765625 81.828125 208.242188 81.59375 208.480469 C 81.355469 208.71875 81.117188 208.71875 80.878906 208.71875 Z M 83.847656 210.855469 C 83.730469 210.972656 83.492188 211.09375 83.253906 211.09375 L 81.234375 213.109375 C 81.234375 213.347656 81.234375 213.46875 81 213.703125 C 80.761719 213.941406 80.285156 213.941406 80.046875 213.703125 C 79.8125 213.46875 79.8125 212.992188 80.046875 212.753906 C 80.167969 212.636719 80.40625 212.515625 80.640625 212.515625 L 82.660156 210.5 C 82.660156 210.261719 82.660156 210.140625 82.898438 209.90625 C 83.136719 209.667969 83.609375 209.667969 83.847656 209.90625 C 84.085938 210.140625 84.085938 210.617188 83.847656 210.855469 Z M 88.597656 206.105469 C 88.359375 206.34375 88.242188 206.34375 88.003906 206.34375 L 85.984375 208.359375 C 85.984375 208.597656 85.984375 208.71875 85.75 208.953125 C 85.511719 209.191406 85.035156 209.191406 84.796875 208.953125 C 84.5625 208.71875 84.5625 208.242188 84.796875 208.003906 C 84.917969 207.886719 85.15625 207.765625 85.390625 207.765625 L 87.410156 205.75 C 87.410156 205.511719 87.410156 205.390625 87.648438 205.15625 C 87.886719 204.917969 88.359375 204.917969 88.597656 205.15625 C 88.835938 205.511719 88.835938 205.867188 88.597656 206.105469 Z M 93.230469 201.472656 C 93.109375 201.59375 92.875 201.710938 92.636719 201.710938 L 90.617188 203.730469 C 90.617188 203.96875 90.617188 204.085938 90.378906 204.324219 C 90.140625 204.5625 89.667969 204.5625 89.429688 204.324219 C 89.191406 204.085938 89.191406 203.609375 89.429688 203.375 C 89.546875 203.253906 89.785156 203.136719 90.023438 203.136719 L 92.042969 201.117188 C 92.042969 200.878906 92.042969 200.761719 92.28125 200.523438 C 92.515625 200.285156 92.992188 200.285156 93.230469 200.523438 C 93.585938 200.761719 93.585938 201.234375 93.230469 201.472656 Z M 97.980469 196.722656 C 97.859375 196.84375 97.625 196.960938 97.386719 196.960938 L 95.367188 198.980469 C 95.367188 199.21875 95.367188 199.335938 95.128906 199.574219 C 94.890625 199.8125 94.417969 199.8125 94.179688 199.574219 C 93.941406 199.335938 93.941406 198.859375 94.179688 198.625 C 94.296875 198.503906 94.535156 198.386719 94.773438 198.386719 L 96.792969 196.367188 C 96.792969 196.128906 96.792969 196.011719 97.03125 195.773438 C 97.265625 195.535156 97.742188 195.535156 97.980469 195.773438 C 98.21875 196.011719 98.21875 196.484375 97.980469 196.722656 Z M 102.730469 191.972656 C 102.609375 192.09375 102.375 192.210938 102.136719 192.210938 L 100.117188 194.230469 C 100.117188 194.46875 100.117188 194.585938 99.878906 194.824219 C 99.640625 195.0625 99.167969 195.0625 98.929688 194.824219 C 98.691406 194.585938 98.691406 194.109375 98.929688 193.875 C 99.046875 193.753906 99.285156 193.636719 99.523438 193.636719 L 101.542969 191.617188 C 101.542969 191.378906 101.542969 191.261719 101.78125 191.023438 C 102.015625 190.785156 102.492188 190.785156 102.730469 191.023438 C 102.96875 191.378906 102.96875 191.734375 102.730469 191.972656 Z M 107.359375 187.34375 C 107.242188 187.460938 107.003906 187.578125 106.765625 187.578125 L 104.867188 189.480469 C 104.867188 189.71875 104.867188 189.835938 104.628906 190.074219 C 104.390625 190.3125 103.917969 190.3125 103.679688 190.074219 C 103.441406 189.835938 103.441406 189.359375 103.679688 189.125 C 103.796875 189.003906 104.035156 188.886719 104.273438 188.886719 L 106.292969 186.867188 C 106.292969 186.628906 106.292969 186.511719 106.53125 186.273438 C 106.765625 186.035156 107.242188 186.035156 107.480469 186.273438 C 107.71875 186.628906 107.71875 187.105469 107.359375 187.34375 Z M 112.109375 182.59375 C 111.992188 182.710938 111.753906 182.828125 111.515625 182.828125 L 109.617188 184.730469 C 109.617188 184.96875 109.617188 185.085938 109.378906 185.324219 C 109.140625 185.5625 108.667969 185.5625 108.429688 185.324219 C 108.191406 185.085938 108.191406 184.609375 108.429688 184.375 C 108.546875 184.253906 108.785156 184.136719 109.023438 184.136719 L 111.042969 182.117188 C 111.042969 181.878906 111.042969 181.761719 111.28125 181.523438 C 111.515625 181.285156 111.992188 181.285156 112.230469 181.523438 C 112.347656 181.878906 112.347656 182.355469 112.109375 182.59375 Z M 112.109375 182.59375 " fill-opacity="1" fill-rule="nonzero"/></g><g fill="#000000" fill-opacity="1"><g transform="translate(124.140296, 202.535744)"><g><path d="M 11.5 0.34375 C 9.46875 0.34375 7.691406 -0.0195312 6.171875 -0.75 C 4.660156 -1.488281 3.5 -2.523438 2.6875 -3.859375 C 1.882812 -5.191406 1.484375 -6.722656 1.484375 -8.453125 C 1.484375 -10.753906 2.007812 -12.828125 3.0625 -14.671875 C 4.113281 -16.515625 5.59375 -17.96875 7.5 -19.03125 C 9.414062 -20.09375 11.609375 -20.625 14.078125 -20.625 C 15.890625 -20.625 17.488281 -20.3125 18.875 -19.6875 C 20.269531 -19.070312 21.328125 -18.1875 22.046875 -17.03125 L 18.65625 -14.25 C 17.570312 -15.832031 15.941406 -16.625 13.765625 -16.625 C 12.273438 -16.625 10.957031 -16.273438 9.8125 -15.578125 C 8.675781 -14.890625 7.796875 -13.945312 7.171875 -12.75 C 6.546875 -11.550781 6.234375 -10.21875 6.234375 -8.75 C 6.234375 -7.1875 6.726562 -5.945312 7.71875 -5.03125 C 8.71875 -4.113281 10.113281 -3.65625 11.90625 -3.65625 C 14.050781 -3.65625 15.847656 -4.4375 17.296875 -6 L 20.078125 -3.15625 C 18.066406 -0.820312 15.207031 0.34375 11.5 0.34375 Z M 11.5 0.34375 "/></g></g></g><g fill="#000000" fill-opacity="1"><g transform="translate(145.374395, 202.535744)"><g><path d="M 21.09375 -13.984375 C 21.09375 -12.097656 20.578125 -10.476562 19.546875 -9.125 C 18.523438 -7.769531 17.109375 -6.8125 15.296875 -6.25 L 18.828125 0 L 13.875 0 L 10.6875 -5.671875 L 6.6875 -5.671875 L 5.5625 0 L 0.84375 0 L 4.890625 -20.28125 L 13.15625 -20.28125 C 15.664062 -20.28125 17.613281 -19.726562 19 -18.625 C 20.394531 -17.519531 21.09375 -15.972656 21.09375 -13.984375 Z M 11.40625 -9.421875 C 12.976562 -9.421875 14.191406 -9.773438 15.046875 -10.484375 C 15.910156 -11.203125 16.34375 -12.226562 16.34375 -13.5625 C 16.34375 -14.519531 16.015625 -15.238281 15.359375 -15.71875 C 14.703125 -16.207031 13.765625 -16.453125 12.546875 -16.453125 L 8.828125 -16.453125 L 7.421875 -9.421875 Z M 11.40625 -9.421875 "/></g></g></g><g fill="#000000" fill-opacity="1"><g transform="translate(166.666425, 202.535744)"><g><path d="M 4.890625 -20.28125 L 9.625 -20.28125 L 5.5625 0 L 0.84375 0 Z M 4.890625 -20.28125 "/></g></g></g><g fill="#000000" fill-opacity="1"><g transform="translate(176.168179, 202.535744)"><g><path d="M 11.5 0.34375 C 9.46875 0.34375 7.691406 -0.0195312 6.171875 -0.75 C 4.660156 -1.488281 3.5 -2.523438 2.6875 -3.859375 C 1.882812 -5.191406 1.484375 -6.722656 1.484375 -8.453125 C 1.484375 -10.753906 2.007812 -12.828125 3.0625 -14.671875 C 4.113281 -16.515625 5.59375 -17.96875 7.5 -19.03125 C 9.414062 -20.09375 11.609375 -20.625 14.078125 -20.625 C 15.890625 -20.625 17.488281 -20.3125 18.875 -19.6875 C 20.269531 -19.070312 21.328125 -18.1875 22.046875 -17.03125 L 18.65625 -14.25 C 17.570312 -15.832031 15.941406 -16.625 13.765625 -16.625 C 12.273438 -16.625 10.957031 -16.273438 9.8125 -15.578125 C 8.675781 -14.890625 7.796875 -13.945312 7.171875 -12.75 C 6.546875 -11.550781 6.234375 -10.21875 6.234375 -8.75 C 6.234375 -7.1875 6.726562 -5.945312 7.71875 -5.03125 C 8.71875 -4.113281 10.113281 -3.65625 11.90625 -3.65625 C 14.050781 -3.65625 15.847656 -4.4375 17.296875 -6 L 20.078125 -3.15625 C 18.066406 -0.820312 15.207031 0.34375 11.5 0.34375 Z M 11.5 0.34375 "/></g></g></g><g fill="#000000" fill-opacity="1"><g transform="translate(197.402278, 202.535744)"><g><path d="M 8.828125 -16.515625 L 7.765625 -11.15625 L 17.171875 -11.15625 L 16.390625 -7.390625 L 7.046875 -7.390625 L 5.5625 0 L 0.84375 0 L 4.890625 -20.28125 L 20.21875 -20.28125 L 19.4375 -16.515625 Z M 8.828125 -16.515625 "/></g></g></g><g fill="#000000" fill-opacity="1"><g transform="translate(215.913312, 202.535744)"><g><path d="M 15.265625 -4.34375 L 5.828125 -4.34375 L 3.1875 0 L -1.828125 0 L 11.296875 -20.28125 L 15.9375 -20.28125 L 20.921875 0 L 16.21875 0 Z M 14.484375 -7.90625 L 12.78125 -15.734375 L 8 -7.90625 Z M 14.484375 -7.90625 "/></g></g></g><g fill="#000000" fill-opacity="1"><g transform="translate(238.10337, 202.535744)"><g><path d="M 23.5 -20.28125 L 19.4375 0 L 15.578125 0 L 8.03125 -12.6875 L 5.46875 0 L 0.84375 0 L 4.890625 -20.28125 L 8.78125 -20.28125 L 16.34375 -7.5625 L 18.859375 -20.28125 Z M 23.5 -20.28125 "/></g></g></g><g fill="#000000" fill-opacity="1"><g transform="translate(261.510119, 202.535744)"><g><path d="M 15.265625 -4.34375 L 5.828125 -4.34375 L 3.1875 0 L -1.828125 0 L 11.296875 -20.28125 L 15.9375 -20.28125 L 20.921875 0 L 16.21875 0 Z M 14.484375 -7.90625 L 12.78125 -15.734375 L 8 -7.90625 Z M 14.484375 -7.90625 "/></g></g></g><g fill="#000000" fill-opacity="1"><g transform="translate(283.700177, 202.535744)"><g><path d="M 8.3125 -16.453125 L 1.828125 -16.453125 L 2.609375 -20.28125 L 20.28125 -20.28125 L 19.5 -16.453125 L 13.03125 -16.453125 L 9.734375 0 L 5.046875 0 Z M 8.3125 -16.453125 "/></g></g></g><g fill="#000000" fill-opacity="1"><g transform="translate(301.602867, 202.535744)"><g><path d="M 4.890625 -20.28125 L 9.625 -20.28125 L 5.5625 0 L 0.84375 0 Z M 4.890625 -20.28125 "/></g></g></g><g fill="#000000" fill-opacity="1"><g transform="translate(311.104621, 202.535744)"><g><path d="M 11.5 0.34375 C 9.46875 0.34375 7.691406 -0.0195312 6.171875 -0.75 C 4.660156 -1.488281 3.5 -2.523438 2.6875 -3.859375 C 1.882812 -5.191406 1.484375 -6.722656 1.484375 -8.453125 C 1.484375 -10.753906 2.007812 -12.828125 3.0625 -14.671875 C 4.113281 -16.515625 5.59375 -17.96875 7.5 -19.03125 C 9.414062 -20.09375 11.609375 -20.625 14.078125 -20.625 C 15.890625 -20.625 17.488281 -20.3125 18.875 -19.6875 C 20.269531 -19.070312 21.328125 -18.1875 22.046875 -17.03125 L 18.65625 -14.25 C 17.570312 -15.832031 15.941406 -16.625 13.765625 -16.625 C 12.273438 -16.625 10.957031 -16.273438 9.8125 -15.578125 C 8.675781 -14.890625 7.796875 -13.945312 7.171875 -12.75 C 6.546875 -11.550781 6.234375 -10.21875 6.234375 -8.75 C 6.234375 -7.1875 6.726562 -5.945312 7.71875 -5.03125 C 8.71875 -4.113281 10.113281 -3.65625 11.90625 -3.65625 C 14.050781 -3.65625 15.847656 -4.4375 17.296875 -6 L 20.078125 -3.15625 C 18.066406 -0.820312 15.207031 0.34375 11.5 0.34375 Z M 11.5 0.34375 "/></g></g></g></svg>